<?xml version="1.0" standalone="no"?>
<!DOCTYPE svg PUBLIC "-//W3C//DTD SVG 20010904//EN"
 "http://www.w3.org/TR/2001/REC-SVG-20010904/DTD/svg10.dtd">
<svg version="1.0" xmlns="http://www.w3.org/2000/svg"
 width="192.000000pt" height="192.000000pt" viewBox="0 0 192.000000 192.000000"
 preserveAspectRatio="xMidYMid meet">

<g transform="translate(0.000000,192.000000) scale(0.100000,-0.100000)"
fill="#000000" stroke="none">
<path d="M0 960 l0 -960 960 0 960 0 0 960 0 960 -960 0 -960 0 0 -960z m1275
511 c53 -24 89 -64 81 -89 -4 -10 -37 -49 -75 -86 l-69 -66 -271 0 -271 0 0
-243 0 -243 -25 -34 c-27 -36 -134 -140 -145 -140 -15 0 -61 59 -70 91 -6 19
-10 175 -10 353 0 304 1 322 21 363 24 49 68 87 119 101 20 6 175 10 355 11
291 0 324 -1 360 -18z m183 -163 c39 -43 42 -68 42 -401 0 -361 -2 -372 -73
-434 -58 -51 -86 -54 -442 -51 l-323 3 -44 30 c-23 17 -44 40 -46 50 -1 13 22
46 66 93 61 65 72 72 107 73 22 0 141 2 265 3 124 2 228 4 233 5 4 0 7 105 7
232 0 149 4 238 11 252 15 29 151 167 165 167 6 0 20 -10 32 -22z"/>
</g>
</svg>
